<?xml version="1.0" encoding="UTF-8"?>
<svg id="Layer_1" data-name="Layer 1" xmlns="http://www.w3.org/2000/svg" viewBox="0 0 528 92">
  <path d="M85.31,84.86h-8.11L57.34,18.29h-.33l-20.03,66.57h-8.27L5.57,6.98h7.94l19.36,69.56h.17L53.72,6.98h6.95l20.35,69.73h.17L101.03,6.98h7.61l-23.32,77.89-.02-.02h0Z"/>
  <path d="M171.19,6.98v6.66h-42.68v28.13h34.42v6.16h-34.42v30.62h44.5v6.32h-52.11V6.98h50.3,0Z"/>
  <path d="M196.82,78.87h21.18c12.24,0,18.69-4.66,18.69-16.15,0-10.16-5.95-15.3-18.69-15.3h-21.18v31.45ZM196.82,41.08h18.86c11.58,0,16.72-5.16,16.72-14.31,0-8.66-4.8-13.31-16.72-13.31h-18.86v27.63-.02h0ZM226.77,43.58v.17c12.07,2.32,17.37,8.99,17.37,19.14,0,13.81-7.78,22.14-25.81,22.14h-29.12V6.98h26.31c15.88,0,23.99,7.66,23.99,19.31,0,9.81-4.13,14.98-12.74,17.3v-.02h0Z"/>
  <path d="M282.7,78.87h-16.05v-10.81c.17-7.66,2.64-9.48,7.61-9.66,5.3.17,8.11,2,8.27,9.81v10.65h.17ZM308.84,55.56v-7.66l-21.01,15.48c-1.32-6.99-6.45-10.81-13.56-10.81-3.96,0-7.44,1.33-9.76,3.99-2.49,2.82-3.64,6.66-3.64,11.65v16.97h47.98v-6.32h-20.35v-8.81l20.35-14.48v-.02h0Z"/>
  <path d="M290.64,37.43h-11.58c-8.11,0-12.24-3.99-12.41-12.65.17-8.66,4.13-12.48,12.57-12.65h11.42c8.27.17,12.42,3.99,12.57,12.65-.33,8.66-4.3,12.65-12.57,12.65h0ZM304.7,10.8c-3.31-3.17-7.78-4.82-13.24-4.82h-13.39c-5.45,0-9.93,1.83-13.07,4.82-3.14,3.32-4.63,7.99-4.63,13.98s1.49,10.65,4.63,13.98c3.31,3.17,7.78,4.82,13.24,4.82h13.24c5.62,0,10.1-1.83,13.24-4.82,3.14-3.32,4.63-7.99,4.63-13.98s-1.49-10.65-4.63-13.98h-.02,0Z"/>
  <path d="M337.95,46.59h21.85c11.75,0,16.87-5.66,16.87-16.47s-5.13-16.65-16.87-16.65h-21.85v33.12ZM384.12,29.94c0,14.15-8.44,22.96-23.82,22.96h-22.5v32.12h-7.44V6.98h29.61c15.55,0,24.16,8.66,24.16,22.96h-.01,0Z"/>
  <path d="M450.96,34.76c0-14.48-7.61-22.46-22.5-22.46s-22.5,7.82-22.5,22.31v22.64c0,14.48,7.61,22.46,22.5,22.46s22.5-7.82,22.5-22.46v-22.48h0ZM458.4,34.59v22.64c0,17.64-10.75,28.95-29.94,28.95s-30.11-11.15-30.11-28.95v-22.46c0-17.82,10.75-28.95,30.11-28.95,19.19.17,29.94,11.15,29.94,28.8v-.02h0Z"/>
  <path d="M483.71,6.98v71.4h38.72v6.49h-46.16V6.98h7.44Z"/>
  <path d="M85.31,84.86h-8.11L57.34,18.29h-.33l-20.03,66.57h-8.27L5.57,6.98h7.94l19.36,69.56h.17L53.72,6.98h6.95l20.35,69.73h.17L101.03,6.98h7.61l-23.32,77.89-.02-.02h0Z"/>
  <path d="M171.19,6.98v6.66h-42.68v28.13h34.42v6.16h-34.42v30.62h44.5v6.32h-52.11V6.98h50.3,0Z"/>
  <path d="M196.82,78.87h21.18c12.24,0,18.69-4.66,18.69-16.15,0-10.16-5.95-15.3-18.69-15.3h-21.18v31.45ZM196.82,41.08h18.86c11.58,0,16.72-5.16,16.72-14.31,0-8.66-4.8-13.31-16.72-13.31h-18.86v27.63-.02h0ZM226.77,43.58v.17c12.07,2.32,17.37,8.99,17.37,19.14,0,13.81-7.78,22.14-25.81,22.14h-29.12V6.98h26.31c15.88,0,23.99,7.66,23.99,19.31,0,9.81-4.13,14.98-12.74,17.3v-.02h0Z"/>
  <path d="M282.7,78.87h-16.05v-10.81c.17-7.66,2.64-9.48,7.61-9.66,5.3.17,8.11,2,8.27,9.81v10.65h.17ZM308.84,55.56v-7.66l-21.01,15.48c-1.32-6.99-6.45-10.81-13.56-10.81-3.96,0-7.44,1.33-9.76,3.99-2.49,2.82-3.64,6.66-3.64,11.65v16.97h47.98v-6.32h-20.35v-8.81l20.35-14.48v-.02h0Z"/>
  <path d="M290.64,37.43h-11.58c-8.11,0-12.24-3.99-12.41-12.65.17-8.66,4.13-12.48,12.57-12.65h11.42c8.27.17,12.42,3.99,12.57,12.65-.33,8.66-4.3,12.65-12.57,12.65h0ZM304.7,10.8c-3.31-3.17-7.78-4.82-13.24-4.82h-13.39c-5.45,0-9.93,1.83-13.07,4.82-3.14,3.32-4.63,7.99-4.63,13.98s1.49,10.65,4.63,13.98c3.31,3.17,7.78,4.82,13.24,4.82h13.24c5.62,0,10.1-1.83,13.24-4.82,3.14-3.32,4.63-7.99,4.63-13.98s-1.49-10.65-4.63-13.98h-.02,0Z"/>
  <path d="M337.95,46.59h21.85c11.75,0,16.87-5.66,16.87-16.47s-5.13-16.65-16.87-16.65h-21.85v33.12ZM384.12,29.94c0,14.15-8.44,22.96-23.82,22.96h-22.5v32.12h-7.44V6.98h29.61c15.55,0,24.16,8.66,24.16,22.96h-.01,0Z"/>
  <path d="M450.96,34.76c0-14.48-7.61-22.46-22.5-22.46s-22.5,7.82-22.5,22.31v22.64c0,14.48,7.61,22.46,22.5,22.46s22.5-7.82,22.5-22.46v-22.48h0ZM458.4,34.59v22.64c0,17.64-10.75,28.95-29.94,28.95s-30.11-11.15-30.11-28.95v-22.46c0-17.82,10.75-28.95,30.11-28.95,19.19.17,29.94,11.15,29.94,28.8v-.02h0Z"/>
  <path d="M483.71,6.98v71.4h38.72v6.49h-46.16V6.98h7.44Z"/>
</svg>