<svg width="168" height="42" viewBox="0 0 168 42" fill="none" xmlns="http://www.w3.org/2000/svg">
<g clip-path="url(#clip0_10204_117202)">
<path d="M25.9187 25.8926H23.2826L16.8273 4.08505H16.72L10.2095 25.8926H7.52142L0 0.380035H2.58082L8.87358 23.167H8.92884L15.6507 0.380035H17.9097L24.5242 23.2227H24.5795L31.0283 0.380035H33.5018L25.9219 25.8958L25.9154 25.8893L25.9187 25.8926Z" fill="white"/>
<path d="M53.8331 0.380035V2.56177H39.9604V11.7768H51.1483V13.7947H39.9604V23.8255H54.4247V25.8958H37.4868V0.380035H53.8363H53.8331Z" fill="white"/>
<path d="M62.1638 23.9303H69.0482C73.0267 23.9303 75.1232 22.4037 75.1232 18.6398C75.1232 15.3115 73.1892 13.6277 69.0482 13.6277H62.1638V23.9303ZM62.1638 11.5508H68.2941C72.058 11.5508 73.7287 9.86042 73.7287 6.86299C73.7287 4.02608 72.1686 2.5028 68.2941 2.5028H62.1638V11.554V11.5475V11.5508ZM71.8988 12.3697V12.4254C75.822 13.1854 77.5447 15.3704 77.5447 18.6955C77.5447 23.2194 75.0159 25.9482 69.1554 25.9482H59.6903V0.380035H68.2421C73.4037 0.380035 76.0398 2.88936 76.0398 6.70575C76.0398 9.91938 74.6974 11.613 71.8988 12.373V12.3665V12.3697Z" fill="white"/>
<path d="M90.0782 23.9302H84.8613V20.389C84.9166 17.8797 85.7194 17.2835 87.3349 17.2245C89.0576 17.2802 89.971 17.8797 90.023 20.4382V23.927H90.0782V23.9302ZM98.5748 16.2942V13.7849L91.7457 18.8559C91.3166 16.5661 89.6492 15.3147 87.3381 15.3147C86.051 15.3147 84.9198 15.7504 84.1657 16.6218C83.3564 17.5456 82.9826 18.8035 82.9826 20.4382V25.9973H98.578V23.927H91.9634V21.0409L98.578 16.2974V16.2909L98.5748 16.2942Z" fill="white"/>
<path d="M92.6591 10.3551H88.8951C86.259 10.3551 84.9166 9.04801 84.8614 6.21111C84.9166 3.3742 86.2038 2.12281 88.9471 2.06712H92.6591C95.3472 2.12281 96.6961 3.3742 96.7448 6.21111C96.6376 9.04801 95.3472 10.3551 92.6591 10.3551ZM97.2291 1.63143C96.1533 0.592979 94.7003 0.0524597 92.9256 0.0524597H88.5733C86.8019 0.0524597 85.3457 0.651945 84.3251 1.63143C83.3044 2.71902 82.8201 4.24886 82.8201 6.21111C82.8201 8.17336 83.3044 9.69991 84.3251 10.7908C85.4009 11.8292 86.8539 12.3698 88.6286 12.3698H92.9321C94.7588 12.3698 96.215 11.7703 97.2356 10.7908C98.2563 9.70319 98.7406 8.17336 98.7406 6.21111C98.7406 4.24886 98.2563 2.7223 97.2356 1.63143H97.2291Z" fill="white"/>
<path d="M108.037 13.3558H115.139C118.958 13.3558 120.622 11.5016 120.622 7.96041C120.622 4.41919 118.955 2.50608 115.139 2.50608H108.037V13.3558ZM123.044 7.90145C123.044 12.5368 120.3 15.4229 115.301 15.4229H107.988V25.945H105.57V0.380035H115.194C120.248 0.380035 123.047 3.21694 123.047 7.90145H123.044Z" fill="white"/>
<path d="M144.769 9.48038C144.769 4.73692 142.296 2.12277 137.456 2.12277C132.616 2.12277 130.143 4.6845 130.143 9.43124V16.8478C130.143 21.5913 132.616 24.2054 137.456 24.2054C142.296 24.2054 144.769 21.6437 144.769 16.8478V9.48366V9.48038ZM147.188 9.42469V16.8413C147.188 22.6199 143.694 26.3249 137.456 26.3249C131.219 26.3249 127.669 22.6723 127.669 16.8413V9.48366C127.669 3.64605 131.163 0 137.456 0C143.694 0.0556899 147.188 3.6526 147.188 9.43452V9.42797V9.42469Z" fill="white"/>
<path d="M155.414 0.380035V23.7698H168V25.8958H152.996V0.380035H155.414Z" fill="white"/>
<path d="M25.9187 25.8926H23.2826L16.8273 4.08505H16.72L10.2095 25.8926H7.52142L0 0.380035H2.58082L8.87358 23.167H8.92884L15.6507 0.380035H17.9097L24.5242 23.2227H24.5795L31.0283 0.380035H33.5018L25.9219 25.8958L25.9154 25.8893L25.9187 25.8926Z" fill="white"/>
<path d="M53.8331 0.380035V2.56177H39.9604V11.7768H51.1483V13.7947H39.9604V23.8255H54.4247V25.8958H37.4868V0.380035H53.8363H53.8331Z" fill="white"/>
<path d="M62.1638 23.9303H69.0482C73.0267 23.9303 75.1232 22.4037 75.1232 18.6398C75.1232 15.3115 73.1892 13.6277 69.0482 13.6277H62.1638V23.9303ZM62.1638 11.5508H68.2941C72.058 11.5508 73.7287 9.86042 73.7287 6.86299C73.7287 4.02608 72.1686 2.5028 68.2941 2.5028H62.1638V11.554V11.5475V11.5508ZM71.8988 12.3697V12.4254C75.822 13.1854 77.5447 15.3704 77.5447 18.6955C77.5447 23.2194 75.0159 25.9482 69.1554 25.9482H59.6903V0.380035H68.2421C73.4037 0.380035 76.0398 2.88936 76.0398 6.70575C76.0398 9.91938 74.6974 11.613 71.8988 12.373V12.3665V12.3697Z" fill="white"/>
<path d="M90.0782 23.9302H84.8613V20.389C84.9166 17.8797 85.7194 17.2835 87.3349 17.2245C89.0576 17.2802 89.971 17.8797 90.023 20.4382V23.927H90.0782V23.9302ZM98.5748 16.2942V13.7849L91.7457 18.8559C91.3166 16.5661 89.6492 15.3147 87.3381 15.3147C86.051 15.3147 84.9198 15.7504 84.1657 16.6218C83.3564 17.5456 82.9826 18.8035 82.9826 20.4382V25.9973H98.578V23.927H91.9634V21.0409L98.578 16.2974V16.2909L98.5748 16.2942Z" fill="white"/>
<path d="M92.6591 10.3551H88.8951C86.259 10.3551 84.9166 9.04801 84.8614 6.21111C84.9166 3.3742 86.2038 2.12281 88.9471 2.06712H92.6591C95.3472 2.12281 96.6961 3.3742 96.7448 6.21111C96.6376 9.04801 95.3472 10.3551 92.6591 10.3551ZM97.2291 1.63143C96.1533 0.592979 94.7003 0.0524597 92.9256 0.0524597H88.5733C86.8019 0.0524597 85.3457 0.651945 84.3251 1.63143C83.3044 2.71902 82.8201 4.24886 82.8201 6.21111C82.8201 8.17336 83.3044 9.69991 84.3251 10.7908C85.4009 11.8292 86.8539 12.3698 88.6286 12.3698H92.9321C94.7588 12.3698 96.215 11.7703 97.2356 10.7908C98.2563 9.70319 98.7406 8.17336 98.7406 6.21111C98.7406 4.24886 98.2563 2.7223 97.2356 1.63143H97.2291Z" fill="white"/>
<path d="M108.037 13.3558H115.139C118.958 13.3558 120.622 11.5016 120.622 7.96041C120.622 4.41919 118.955 2.50608 115.139 2.50608H108.037V13.3558ZM123.044 7.90145C123.044 12.5368 120.3 15.4229 115.301 15.4229H107.988V25.945H105.57V0.380035H115.194C120.248 0.380035 123.047 3.21694 123.047 7.90145H123.044Z" fill="white"/>
<path d="M144.769 9.48038C144.769 4.73692 142.296 2.12277 137.456 2.12277C132.616 2.12277 130.143 4.6845 130.143 9.43124V16.8478C130.143 21.5913 132.616 24.2054 137.456 24.2054C142.296 24.2054 144.769 21.6437 144.769 16.8478V9.48366V9.48038ZM147.188 9.42469V16.8413C147.188 22.6199 143.694 26.3249 137.456 26.3249C131.219 26.3249 127.669 22.6723 127.669 16.8413V9.48366C127.669 3.64605 131.163 0 137.456 0C143.694 0.0556899 147.188 3.6526 147.188 9.43452V9.42797V9.42469Z" fill="white"/>
<path d="M155.414 0.380035V23.7698H168V25.8958H152.996V0.380035H155.414Z" fill="white"/>
<path d="M9.8487 39.3924C9.8487 39.1631 9.82269 38.96 9.76744 38.7831C9.71218 38.6062 9.62117 38.4457 9.4879 38.3016C9.35464 38.1574 9.16936 38.0231 8.92883 37.8921C8.6883 37.761 8.38602 37.63 8.01547 37.4957C7.61567 37.3516 7.25488 37.191 6.92984 37.0141C6.6048 36.8372 6.32852 36.6341 6.10099 36.4048C5.87346 36.1755 5.69469 35.9134 5.57117 35.6186C5.44766 35.3238 5.3859 34.9864 5.3859 34.6031C5.3859 34.2198 5.45091 33.8693 5.58093 33.5483C5.71094 33.2272 5.89946 32.9455 6.13999 32.7064C6.38052 32.4672 6.67306 32.2805 7.0176 32.1462C7.36214 32.0119 7.74244 31.9431 8.16499 31.9431C8.79557 31.9431 9.32863 32.0839 9.76094 32.3624C10.1932 32.6441 10.5215 33.0077 10.7426 33.4565C10.9636 33.9053 11.0773 34.3869 11.0773 34.8979H9.85195C9.85195 34.531 9.79344 34.2034 9.67643 33.9217C9.55941 33.6367 9.37739 33.414 9.13036 33.2502C8.88333 33.0864 8.56154 33.0045 8.16824 33.0045C7.81395 33.0045 7.52141 33.0733 7.29063 33.2141C7.05986 33.355 6.89409 33.5417 6.78357 33.7776C6.67306 34.0134 6.62105 34.2853 6.62105 34.59C6.62105 34.7964 6.65681 34.9831 6.72832 35.1502C6.79982 35.3172 6.91034 35.4745 7.05986 35.6153C7.20937 35.7562 7.39465 35.8905 7.61892 36.0117C7.8432 36.1329 8.10973 36.2476 8.41527 36.3622C8.88983 36.5195 9.29613 36.6931 9.63417 36.8864C9.97221 37.0797 10.2485 37.2959 10.4598 37.535C10.6743 37.7741 10.8303 38.046 10.9311 38.3474C11.0318 38.6488 11.0806 38.9895 11.0806 39.3728C11.0806 39.756 11.0156 40.1328 10.8856 40.4538C10.7556 40.7748 10.5638 41.0533 10.3168 41.2793C10.0697 41.5054 9.76744 41.6823 9.41639 41.8067C9.06535 41.9312 8.6688 41.9902 8.23 41.9902C7.84645 41.9902 7.47266 41.928 7.10536 41.8035C6.73807 41.679 6.40653 41.489 6.10749 41.24C5.80845 40.9911 5.57117 40.6798 5.39565 40.3097C5.21688 39.9395 5.12912 39.5104 5.12912 39.0223H6.35452C6.35452 39.3597 6.40328 39.6447 6.50079 39.8838C6.5983 40.1229 6.73482 40.3228 6.90709 40.48C7.07936 40.6373 7.28088 40.7519 7.50516 40.8273C7.72944 40.9026 7.96997 40.9386 8.23 40.9386C8.58429 40.9386 8.88333 40.8764 9.12711 40.7519C9.37089 40.6274 9.55291 40.4473 9.67317 40.2147C9.79344 39.9821 9.8552 39.7069 9.8552 39.3892L9.8487 39.3924Z" fill="white"/>
<path d="M17.4676 32.0807H18.693V38.9665C18.693 39.7003 18.5533 40.29 18.2737 40.7322C17.9942 41.1745 17.6269 41.4955 17.1718 41.6954C16.7168 41.8952 16.226 41.9935 15.7027 41.9935C15.1436 41.9935 14.6398 41.8952 14.188 41.6954C13.7394 41.4955 13.3819 41.1745 13.1186 40.7322C12.8553 40.29 12.722 39.7003 12.722 38.9665V32.0807H13.9409V38.9665C13.9409 39.4776 14.0125 39.8772 14.1587 40.1622C14.305 40.4472 14.5065 40.6503 14.773 40.7683C15.0396 40.8862 15.3484 40.9419 15.7027 40.9419C16.057 40.9419 16.3755 40.8829 16.6388 40.7683C16.9021 40.6536 17.1068 40.4505 17.2531 40.1622C17.3994 39.874 17.4709 39.4776 17.4709 38.9665V32.0807H17.4676Z" fill="white"/>
<path d="M20.7928 32.0807H23.5068C24.1374 32.0807 24.6672 32.192 25.0963 32.4181C25.5253 32.6441 25.8504 32.9717 26.0681 33.4107C26.2892 33.8464 26.3997 34.3836 26.3997 35.0191C26.3997 35.4679 26.3249 35.8741 26.1787 36.2443C26.0324 36.6145 25.8179 36.9257 25.5383 37.1845C25.2588 37.4433 24.9175 37.6333 24.5177 37.7577L24.1829 37.8986H21.7646L21.7516 36.8438H23.4906C23.8644 36.8438 24.1764 36.7619 24.4234 36.5981C24.6737 36.4343 24.859 36.2148 24.9825 35.9364C25.106 35.6579 25.1678 35.3533 25.1678 35.0158C25.1678 34.6391 25.1125 34.3115 25.002 34.0298C24.8915 33.7481 24.7127 33.5286 24.4722 33.3746C24.2284 33.2207 23.9066 33.142 23.5036 33.142H22.0182V41.8624H20.7928V32.0807ZM25.4506 41.8624L23.5166 37.4269L24.7907 37.4203L26.7637 41.7805V41.8624H25.4506Z" fill="white"/>
<path d="M28.6945 32.0807L31.0088 40.3784L31.3143 41.8624H30.3749L27.3618 32.0807H28.6945ZM30.7877 40.3784L33.1215 32.0807H34.4542L31.4411 41.8624H30.5017L30.7877 40.3784Z" fill="white"/>
<path d="M37.2203 32.0807V41.8624H35.9949V32.0807H37.2203ZM41.1468 32.0807V33.142H36.9993V32.0807H41.1468ZM40.6462 36.2869V37.3417H36.9993V36.2869H40.6462ZM41.2118 40.8076V41.8624H36.9993V40.8076H41.2118Z" fill="white"/>
<path d="M43.5455 32.0807L45.525 36.9912L47.511 32.0807H48.8989L46.1393 38.2065V41.8624H44.9139V38.2065L42.1544 32.0807H43.5488H43.5455Z" fill="white"/>
<path d="M59.1377 32.0807V33.142H52.8254V32.0807H59.1377ZM56.5861 32.0807V41.8624H55.3737V32.0807H56.5861Z" fill="white"/>
<path d="M66.9159 36.1264V37.8266C66.9159 38.5178 66.8412 39.1239 66.6916 39.6447C66.5421 40.1656 66.3276 40.6013 66.0416 40.9518C65.7555 41.3023 65.4142 41.5644 65.0144 41.738C64.6146 41.9116 64.1628 42.0001 63.6623 42.0001C63.1617 42.0001 62.7359 41.9116 62.3361 41.738C61.9363 41.5644 61.5918 41.3023 61.3025 40.9518C61.0132 40.6013 60.7889 40.1656 60.6329 39.6447C60.4736 39.1239 60.3956 38.5178 60.3956 37.8266V36.1264C60.3956 35.4352 60.4736 34.8325 60.6297 34.3083C60.7857 33.7842 61.0067 33.3518 61.296 33.0012C61.5853 32.6507 61.9298 32.3887 62.3296 32.2118C62.7294 32.0349 63.1715 31.9464 63.6558 31.9464C64.1401 31.9464 64.6114 32.0349 65.0112 32.2118C65.411 32.3887 65.7555 32.6507 66.0383 33.0012C66.3211 33.3518 66.5389 33.7875 66.6884 34.3083C66.8379 34.8292 66.9159 35.4352 66.9159 36.1264ZM65.7035 37.8266V36.1133C65.7035 35.5761 65.658 35.1142 65.5703 34.7276C65.4825 34.3411 65.3492 34.0233 65.177 33.7776C65.0047 33.5319 64.7902 33.3485 64.5366 33.2306C64.2831 33.1126 63.9906 33.0537 63.6558 33.0537C63.3405 33.0537 63.0577 33.1126 62.8074 33.2306C62.5571 33.3485 62.3426 33.5319 62.1638 33.7776C61.9851 34.0233 61.8486 34.3411 61.7543 34.7276C61.66 35.1142 61.6113 35.5761 61.6113 36.1133V37.8266C61.6113 38.3671 61.66 38.8323 61.7543 39.2189C61.8486 39.6054 61.9883 39.9232 62.1671 40.1721C62.3459 40.4211 62.5636 40.6046 62.8172 40.7225C63.0707 40.8404 63.3535 40.8994 63.6623 40.8994C63.9971 40.8994 64.2896 40.8404 64.5464 40.7225C64.8032 40.6046 65.0144 40.4211 65.1867 40.1721C65.359 39.9232 65.4858 39.6054 65.5735 39.2189C65.6613 38.8323 65.7035 38.3671 65.7035 37.8266Z" fill="white"/>
<path d="M75.3409 36.1264V37.8266C75.3409 38.5178 75.2662 39.1239 75.1166 39.6447C74.9671 40.1656 74.7526 40.6013 74.4666 40.9518C74.1805 41.3023 73.8392 41.5644 73.4394 41.738C73.0396 41.9116 72.5878 42.0001 72.0873 42.0001C71.5867 42.0001 71.1609 41.9116 70.7611 41.738C70.3613 41.5644 70.0168 41.3023 69.7275 40.9518C69.4382 40.6013 69.2139 40.1656 69.0579 39.6447C68.8986 39.1239 68.8206 38.5178 68.8206 37.8266V36.1264C68.8206 35.4352 68.8986 34.8325 69.0546 34.3083C69.2107 33.7842 69.4317 33.3518 69.721 33.0012C70.0103 32.6507 70.3548 32.3887 70.7546 32.2118C71.1544 32.0349 71.5965 31.9464 72.0808 31.9464C72.5651 31.9464 73.0364 32.0349 73.4362 32.2118C73.836 32.3887 74.1805 32.6507 74.4633 33.0012C74.7461 33.3518 74.9639 33.7875 75.1134 34.3083C75.2629 34.8292 75.3409 35.4352 75.3409 36.1264ZM74.1285 37.8266V36.1133C74.1285 35.5761 74.083 35.1142 73.9952 34.7276C73.9075 34.3411 73.7742 34.0233 73.602 33.7776C73.4297 33.5319 73.2152 33.3485 72.9616 33.2306C72.7081 33.1126 72.4156 33.0537 72.0808 33.0537C71.7655 33.0537 71.4827 33.1126 71.2324 33.2306C70.9821 33.3485 70.7676 33.5319 70.5888 33.7776C70.4101 34.0233 70.2735 34.3411 70.1793 34.7276C70.085 35.1142 70.0363 35.5761 70.0363 36.1133V37.8266C70.0363 38.3671 70.085 38.8323 70.1793 39.2189C70.2735 39.6054 70.4133 39.9232 70.5921 40.1721C70.7709 40.4211 70.9886 40.6046 71.2422 40.7225C71.4957 40.8404 71.7785 40.8994 72.0873 40.8994C72.4221 40.8994 72.7146 40.8404 72.9714 40.7225C73.2282 40.6046 73.4394 40.4211 73.6117 40.1721C73.784 39.9232 73.9107 39.6054 73.9985 39.2189C74.0863 38.8323 74.1285 38.3671 74.1285 37.8266Z" fill="white"/>
<path d="M78.6791 32.0807V41.8624H77.4537V32.0807H78.6791ZM82.4853 40.8076V41.8624H78.4581V40.8076H82.4853Z" fill="white"/>
<path d="M88.7423 32.0807V41.8624H87.5169V32.0807H88.7423ZM92.5681 32.0807V33.142H88.5083V32.0807H92.5681ZM92.0155 36.4834V37.5448H88.5083V36.4834H92.0155Z" fill="white"/>
<path d="M100.613 36.1264V37.8266C100.613 38.5178 100.538 39.1239 100.388 39.6447C100.239 40.1656 100.024 40.6013 99.7384 40.9518C99.4524 41.3023 99.1111 41.5644 98.7113 41.738C98.3115 41.9116 97.8597 42.0001 97.3591 42.0001C96.8586 42.0001 96.4328 41.9116 96.033 41.738C95.6332 41.5644 95.2886 41.3023 94.9993 40.9518C94.71 40.6013 94.4858 40.1656 94.3297 39.6447C94.1705 39.1239 94.0925 38.5178 94.0925 37.8266V36.1264C94.0925 35.4352 94.1705 34.8325 94.3265 34.3083C94.4825 33.7842 94.7035 33.3518 94.9928 33.0012C95.2821 32.6507 95.6266 32.3887 96.0264 32.2118C96.4262 32.0349 96.8683 31.9464 97.3526 31.9464C97.8369 31.9464 98.3082 32.0349 98.708 32.2118C99.1078 32.3887 99.4524 32.6507 99.7352 33.0012C100.018 33.3518 100.236 33.7875 100.385 34.3083C100.535 34.8292 100.613 35.4352 100.613 36.1264ZM99.3971 37.8266V36.1133C99.3971 35.5761 99.3516 35.1142 99.2639 34.7276C99.1761 34.3411 99.0428 34.0233 98.8705 33.7776C98.6983 33.5319 98.4837 33.3485 98.2302 33.2306C97.9767 33.1126 97.6842 33.0537 97.3494 33.0537C97.0341 33.0537 96.7513 33.1126 96.501 33.2306C96.2507 33.3485 96.0362 33.5319 95.8574 33.7776C95.6787 34.0233 95.5421 34.3411 95.4479 34.7276C95.3536 35.1142 95.3049 35.5761 95.3049 36.1133V37.8266C95.3049 38.3671 95.3536 38.8323 95.4479 39.2189C95.5421 39.6054 95.6819 39.9232 95.8607 40.1721C96.0395 40.4211 96.2572 40.6046 96.5108 40.7225C96.7643 40.8404 97.0471 40.8994 97.3559 40.8994C97.6906 40.8994 97.9832 40.8404 98.24 40.7225C98.4967 40.6046 98.708 40.4211 98.8803 40.1721C99.0526 39.9232 99.1793 39.6054 99.2671 39.2189C99.3549 38.8323 99.3971 38.3671 99.3971 37.8266Z" fill="white"/>
<path d="M102.729 32.0807H105.443C106.073 32.0807 106.603 32.192 107.032 32.4181C107.461 32.6408 107.786 32.9717 108.004 33.4107C108.225 33.8464 108.332 34.3836 108.332 35.0191C108.332 35.4679 108.258 35.8741 108.111 36.2443C107.965 36.6145 107.751 36.9257 107.471 37.1845C107.192 37.4433 106.85 37.6333 106.451 37.7577L106.116 37.8986H103.697L103.684 36.8438H105.423C105.797 36.8438 106.109 36.7619 106.356 36.5981C106.607 36.4343 106.792 36.2148 106.915 35.9364C107.039 35.6579 107.101 35.3533 107.101 35.0158C107.101 34.6391 107.045 34.3115 106.935 34.0298C106.824 33.7481 106.646 33.5286 106.405 33.3746C106.161 33.2207 105.839 33.142 105.436 33.142H103.951V41.8624H102.726V32.0807H102.729ZM107.39 41.8624L105.456 37.4269L106.73 37.4203L108.703 41.7805V41.8624H107.39Z" fill="white"/>
<path d="M111.414 32.0807V41.8624H110.188V32.0807H111.414ZM115.34 32.0807V33.142H111.193V32.0807H115.34ZM114.84 36.2869V37.3417H111.193V36.2869H114.84ZM115.405 40.8076V41.8624H111.193V40.8076H115.405Z" fill="white"/>
<path d="M117.2 32.0807H119.914C120.544 32.0807 121.074 32.192 121.503 32.4181C121.932 32.6408 122.257 32.9717 122.475 33.4107C122.696 33.8464 122.803 34.3836 122.803 35.0191C122.803 35.4679 122.728 35.8741 122.582 36.2443C122.436 36.6145 122.221 36.9257 121.942 37.1845C121.662 37.4433 121.321 37.6333 120.921 37.7577L120.586 37.8986H118.168L118.155 36.8438H119.894C120.268 36.8438 120.58 36.7619 120.827 36.5981C121.077 36.4343 121.263 36.2148 121.386 35.9364C121.51 35.6579 121.571 35.3533 121.571 35.0158C121.571 34.6391 121.516 34.3115 121.406 34.0298C121.295 33.7481 121.116 33.5286 120.876 33.3746C120.632 33.2207 120.31 33.142 119.907 33.142H118.422V41.8624H117.196V32.0807H117.2ZM121.857 41.8624L119.923 37.4269L121.198 37.4203L123.171 41.7805V41.8624H121.857Z" fill="white"/>
<path d="M129.223 32.0807H130.448V38.9665C130.448 39.7003 130.308 40.29 130.029 40.7322C129.749 41.1745 129.382 41.4955 128.927 41.6954C128.472 41.8952 127.981 41.9935 127.458 41.9935C126.899 41.9935 126.395 41.8952 125.943 41.6954C125.495 41.4955 125.137 41.1745 124.874 40.7322C124.61 40.29 124.477 39.7003 124.477 38.9665V32.0807H125.696V38.9665C125.696 39.4776 125.768 39.8772 125.914 40.1622C126.057 40.4505 126.262 40.6503 126.528 40.7683C126.791 40.8862 127.103 40.9419 127.458 40.9419C127.812 40.9419 128.131 40.8829 128.394 40.7683C128.657 40.6503 128.862 40.4505 129.008 40.1622C129.151 39.874 129.226 39.4776 129.226 38.9665V32.0807H129.223Z" fill="white"/>
<path d="M138.886 32.0807V41.8624H137.654L133.767 34.3181V41.8624H132.541V32.0807H133.767L137.674 39.6447V32.0807H138.886Z" fill="white"/>
<path d="M147.562 32.0807V41.8624H146.33L142.442 34.3181V41.8624H141.217V32.0807H142.442L146.349 39.6447V32.0807H147.562Z" fill="white"/>
<path d="M151.121 32.0807V41.8624H149.895V32.0807H151.121ZM155.047 32.0807V33.142H150.9V32.0807H155.047ZM154.547 36.2869V37.3417H150.9V36.2869H154.547ZM155.115 40.8076V41.8624H150.903V40.8076H155.115Z" fill="white"/>
<path d="M156.906 32.0807H159.62C160.251 32.0807 160.781 32.192 161.21 32.4181C161.639 32.6408 161.964 32.9717 162.182 33.4107C162.403 33.8464 162.51 34.3836 162.51 35.0191C162.51 35.4679 162.435 35.8741 162.289 36.2443C162.143 36.6145 161.928 36.9257 161.649 37.1845C161.369 37.4433 161.028 37.6333 160.628 37.7577L160.293 37.8986H157.875L157.862 36.8438H159.601C159.975 36.8438 160.287 36.7619 160.534 36.5981C160.784 36.4343 160.969 36.2148 161.093 35.9364C161.216 35.6579 161.278 35.3533 161.278 35.0158C161.278 34.6391 161.223 34.3115 161.112 34.0298C161.002 33.7481 160.823 33.5286 160.583 33.3746C160.339 33.2207 160.017 33.142 159.614 33.142H158.129V41.8624H156.903V32.0807H156.906ZM161.564 41.8624L159.63 37.4269L160.904 37.4203L162.877 41.7805V41.8624H161.564Z" fill="white"/>
</g>
<defs>
<clipPath id="clip0_10204_117202">
<rect width="168" height="42" fill="white"/>
</clipPath>
</defs>
</svg>
